<svg xmlns="http://www.w3.org/2000/svg" xmlns:xlink="http://www.w3.org/1999/xlink" viewBox="0 0 49.69 39.35"><defs><style>.cls-1{fill:none;}.cls-2{isolation:isolate;}.cls-3{clip-path:url(#clip-path);}.cls-4{fill:#787878;}.cls-5{fill:#7c7c7c;}.cls-6{fill:#818181;}.cls-7{fill:#858585;}.cls-8{fill:#8a8a8a;}.cls-9{fill:#8f8f8f;}.cls-10{fill:#939393;}.cls-11{fill:#989898;}.cls-12{fill:#9c9c9c;}.cls-13{fill:#a1a1a1;}.cls-14{fill:#a6a6a6;}.cls-15{fill:#aaa;}.cls-16{fill:#afafaf;}.cls-17{fill:#b3b3b3;}.cls-18{fill:#b8b8b8;}.cls-19{fill:#bdbdbd;}.cls-20{fill:#c1c1c1;}.cls-21{fill:#c6c6c6;}.cls-22{fill:#cacaca;}.cls-23{fill:#cfcfcf;}.cls-24{fill:#d4d4d4;}.cls-25{fill:#d8d8d8;}.cls-26{fill:#ddd;}.cls-27{fill:#e1e1e1;}.cls-28{fill:#e6e6e6;}.cls-29{fill:#e9e9e9;}.cls-30{fill:#eaeaea;}.cls-31{fill:#ebebeb;}.cls-32{fill:#ececec;}.cls-33{fill:#ededed;}.cls-34{fill:#eee;}.cls-35{fill:#efefef;}.cls-36{fill:#f0f0f0;}.cls-37{fill:#f1f1f1;}.cls-38{fill:#f2f2f2;}.cls-39{fill:#f3f3f3;}.cls-40{fill:#f4f4f4;}.cls-41{clip-path:url(#clip-path-2);}.cls-42{clip-path:url(#clip-path-3);}.cls-43{clip-path:url(#clip-path-4);}.cls-44{fill:#737373;}.cls-45{clip-path:url(#clip-path-5);}.cls-46{fill:#f0e190;}.cls-47{fill:#ebdc8d;}.cls-48{fill:#e6d78a;}.cls-49{fill:#e0d287;}.cls-50{fill:#dbce84;}.cls-51{fill:#d6c981;}.cls-52{fill:#d1c47d;}.cls-53{fill:#ccbf7a;}.cls-54{fill:#c7ba77;}.cls-55{fill:#c2b674;}.cls-56{fill:#bdb171;}.cls-57{fill:#b8ac6e;}.cls-58{fill:#b3a76b;}.cls-59{fill:#ada368;}.cls-60{fill:#a89e65;}.cls-61{fill:#a39962;}.cls-62{fill:#9e945f;}.cls-63{fill:#998f5c;}.cls-64{fill:#948b59;}.cls-65{fill:#8f8656;}.cls-66{fill:#8a8153;}.cls-67{clip-path:url(#clip-path-6);}.cls-68{fill:#857c50;}.cls-69{clip-path:url(#clip-path-7);}.cls-70{fill:#f5e593;}.cls-71{fill:#faea96;}.cls-72{fill:#ffef99;}.cls-73{fill:#fff1a5;}.cls-74{fill:#fff2aa;}.cls-75{fill:#fff2ae;}.cls-76{fill:#fff3b1;}.cls-77{fill:#fff3b4;}.cls-78{fill:#fff4b7;}.cls-79{fill:#fff4b9;}.cls-80{fill:#fff4bc;}.cls-81{fill:#fff5be;}.cls-82{fill:#fff5c0;}.cls-83{fill:#fff5c2;}.cls-84{fill:#fff6c3;}.cls-85{fill:#fff6c5;}.cls-86{fill:#fff6c7;}.cls-87{fill:#fff6c8;}.cls-88{fill:#fff7ca;}.cls-89{fill:#fff7cb;}.cls-90{fill:#fff7cd;}.cls-91{fill:#fff7ce;}.cls-92{fill:#fff8d0;}.cls-93{fill:#fff8d1;}.cls-94{clip-path:url(#clip-path-8);}.cls-95{clip-path:url(#clip-path-9);}.cls-96{fill:#80784d;}.cls-97{font-size:12px;fill:silver;font-family:MyriadPro-Regular, Myriad Pro;}.cls-98{letter-spacing:0em;}.cls-99{letter-spacing:-0.01em;}.cls-100{letter-spacing:0em;}</style><clipPath id="clip-path" transform="translate(53.95 -30.34)"><path class="cls-1" d="M-40.5,33.79l1.68-2.24a1.4,1.4,0,0,0-.2,1.09c.36,2.27,4.1,6,8.35,8.44l-1.69,2.25c-4.24-2.4-8-6.18-8.34-8.45A1.37,1.37,0,0,1-40.5,33.79Z"/></clipPath><clipPath id="clip-path-2" transform="translate(53.95 -30.34)"><path class="cls-1" d="M-23.82,42.41l-1.69,2.25c-.77,1-3.46.57-6.85-1.33l1.69-2.25C-27.29,43-24.6,43.45-23.82,42.41Z"/></clipPath><clipPath id="clip-path-3" transform="translate(53.95 -30.34)"><path class="cls-1" d="M-41.31,33.19-39.63,31c.87-1.15,3.85-.66,7.58,1.45l-1.69,2.24C-37.47,32.53-40.44,32-41.31,33.19Z"/></clipPath><clipPath id="clip-path-4" transform="translate(53.95 -30.34)"><path class="cls-1" d="M-23,43l-1.68,2.24A1.53,1.53,0,0,0-24.48,44c-.41-2.53-4.55-6.74-9.26-9.39L-32,32.4c4.7,2.65,8.85,6.86,9.25,9.39A1.54,1.54,0,0,1-23,43Z"/></clipPath><clipPath id="clip-path-5" transform="translate(53.95 -30.34)"><path class="cls-1" d="M-31.48,44.54l-1.68-2.24c-2.15,1.21-4,1.8-5.19,1.61l1.69,2.24C-35.52,46.34-33.63,45.75-31.48,44.54Z"/></clipPath><clipPath id="clip-path-6" transform="translate(53.95 -30.34)"><path class="cls-1" d="M-39.24,43.43l1.68,2.24a1.36,1.36,0,0,0,.9.48l-1.69-2.24A1.34,1.34,0,0,1-39.24,43.43Z"/></clipPath><clipPath id="clip-path-7" transform="translate(53.95 -30.34)"><path class="cls-1" d="M-22.91,34.29l-1.68-2.24a1.92,1.92,0,0,1,0,1.79,13.36,13.36,0,0,1-3.38,4.56,26.89,26.89,0,0,1-5.22,3.9l1.68,2.24a26.59,26.59,0,0,0,5.22-3.9,13.36,13.36,0,0,0,3.38-4.56A1.89,1.89,0,0,0-22.91,34.29Z"/></clipPath><clipPath id="clip-path-8" transform="translate(53.95 -30.34)"><path class="cls-1" d="M-40,44l1.68,2.24c-.88-1.18.51-4,3.69-7L-36.35,37C-39.53,40.05-40.92,42.85-40,44Z"/></clipPath><clipPath id="clip-path-9" transform="translate(53.95 -30.34)"><path class="cls-1" d="M-22.11,33.69l-1.68-2.24a1.49,1.49,0,0,0-1-.54c-1.29-.22-3.4.44-5.8,1.79A29.13,29.13,0,0,0-36.35,37l1.68,2.24a29.42,29.42,0,0,1,5.75-4.3c2.4-1.35,4.52-2,5.8-1.79A1.53,1.53,0,0,1-22.11,33.69Z"/></clipPath></defs><g id="Alliances"><g class="cls-2"><g class="cls-2"><g class="cls-3"><g class="cls-2"><path class="cls-4" d="M-40.5,33.79l1.68-2.24a.94.94,0,0,0-.12.22L-40.63,34a1.59,1.59,0,0,1,.13-.22" transform="translate(53.95 -30.34)"/><path class="cls-5" d="M-40.63,34l1.69-2.24A.92.92,0,0,0-39,32l-1.68,2.24a1,1,0,0,1,.07-.25" transform="translate(53.95 -30.34)"/><path class="cls-6" d="M-40.7,34.26-39,32a1.49,1.49,0,0,0,0,.21l-1.69,2.24a.76.76,0,0,1,0-.21" transform="translate(53.95 -30.34)"/><path class="cls-7" d="M-40.73,34.47-39,32.23a.74.74,0,0,0,0,.21l-1.69,2.24v-.21" transform="translate(53.95 -30.34)"/><path class="cls-8" d="M-40.87,34.68l1.76-2.24c0,.06.11.13.11.2h0l-2,2.24h0c0-.07.13-.13.13-.2" transform="translate(53.95 -30.34)"/><path class="cls-9" d="M-40.7,34.88-39,32.64a1.06,1.06,0,0,0,0,.19l-1.68,2.24a1.06,1.06,0,0,1,0-.19" transform="translate(53.95 -30.34)"/><path class="cls-10" d="M-40.66,35.07-39,32.83a1.46,1.46,0,0,0,0,.2l-1.68,2.24a1.46,1.46,0,0,1,0-.2" transform="translate(53.95 -30.34)"/><path class="cls-11" d="M-40.61,35.27-38.93,33l.06.18-1.68,2.24-.06-.18" transform="translate(53.95 -30.34)"/><path class="cls-12" d="M-40.55,35.45l1.68-2.24c0,.07,0,.13.07.19l-1.68,2.24a1.07,1.07,0,0,1-.07-.19" transform="translate(53.95 -30.34)"/><path class="cls-13" d="M-40.48,35.64l1.68-2.24.09.19-1.69,2.24c0-.06-.05-.12-.08-.19" transform="translate(53.95 -30.34)"/><path class="cls-14" d="M-40.4,35.83l1.69-2.24a1.11,1.11,0,0,0,.09.19L-40.31,36l-.09-.19" transform="translate(53.95 -30.34)"/><path class="cls-15" d="M-40.31,36l1.69-2.24a1.86,1.86,0,0,0,.1.2l-1.68,2.24-.11-.2" transform="translate(53.95 -30.34)"/><path class="cls-16" d="M-40.2,36.22-38.52,34l.11.2-1.68,2.24a2,2,0,0,1-.11-.2" transform="translate(53.95 -30.34)"/><path class="cls-17" d="M-40.09,36.42l1.68-2.24a2.39,2.39,0,0,0,.13.21L-40,36.63l-.12-.21" transform="translate(53.95 -30.34)"/><path class="cls-18" d="M-40,36.63l1.69-2.24.13.21-1.68,2.24-.14-.21" transform="translate(53.95 -30.34)"/><path class="cls-19" d="M-39.83,36.84l1.68-2.24.15.22-1.68,2.24-.15-.22" transform="translate(53.95 -30.34)"/><path class="cls-20" d="M-39.68,37.06-38,34.82c.06.07.11.15.17.23l-1.69,2.24-.16-.23" transform="translate(53.95 -30.34)"/><path class="cls-21" d="M-39.52,37.29l1.69-2.24.17.23-1.68,2.24-.18-.23" transform="translate(53.95 -30.34)"/><path class="cls-22" d="M-39.34,37.52l1.68-2.24.18.22-1.68,2.25-.18-.23" transform="translate(53.95 -30.34)"/><path class="cls-23" d="M-39.16,37.75l1.68-2.25.18.22L-39,38l-.17-.21" transform="translate(53.95 -30.34)"/><path class="cls-24" d="M-39,38l1.69-2.24.18.21-1.69,2.24L-39,38" transform="translate(53.95 -30.34)"/><path class="cls-25" d="M-38.81,38.17l1.69-2.24.15.17-1.69,2.24-.15-.17" transform="translate(53.95 -30.34)"/><path class="cls-26" d="M-38.66,38.34-37,36.1l.15.17-1.68,2.24-.16-.17" transform="translate(53.95 -30.34)"/><path class="cls-27" d="M-38.5,38.51l1.68-2.24.14.15-1.69,2.24-.13-.15" transform="translate(53.95 -30.34)"/><path class="cls-28" d="M-38.37,38.66l1.69-2.24.11.12-1.68,2.24-.12-.12" transform="translate(53.95 -30.34)"/><path class="cls-29" d="M-38.25,38.78l1.68-2.24.12.13-1.68,2.24-.12-.13" transform="translate(53.95 -30.34)"/><path class="cls-30" d="M-38.13,38.91l1.68-2.24.13.12L-38,39l-.12-.12" transform="translate(53.95 -30.34)"/><path class="cls-31" d="M-38,39l1.69-2.24.1.1-1.69,2.24L-38,39" transform="translate(53.95 -30.34)"/><path class="cls-32" d="M-37.91,39.13l1.69-2.24.09.1-1.68,2.24a.94.94,0,0,1-.1-.1" transform="translate(53.95 -30.34)"/><path class="cls-33" d="M-37.81,39.23-36.13,37l.1.09-1.69,2.24-.09-.09" transform="translate(53.95 -30.34)"/><path class="cls-33" d="M-37.72,39.32-36,37.08l.09.1-1.68,2.24-.1-.1" transform="translate(53.95 -30.34)"/><path class="cls-34" d="M-37.62,39.42l1.68-2.24.1.09-1.68,2.24-.1-.09" transform="translate(53.95 -30.34)"/><path class="cls-34" d="M-37.52,39.51l1.68-2.24.09.08-1.68,2.24-.09-.08" transform="translate(53.95 -30.34)"/><path class="cls-35" d="M-37.43,39.59l1.68-2.24.09.09-1.68,2.24-.09-.09" transform="translate(53.95 -30.34)"/><path class="cls-35" d="M-37.34,39.68l1.68-2.24.09.08-1.68,2.24-.09-.08" transform="translate(53.95 -30.34)"/><path class="cls-36" d="M-37.25,39.76l1.68-2.24.09.08-1.68,2.24-.09-.08" transform="translate(53.95 -30.34)"/><path class="cls-36" d="M-37.16,39.84l1.68-2.24.09.09-1.68,2.24-.09-.09" transform="translate(53.95 -30.34)"/><path class="cls-37" d="M-37.07,39.93l1.68-2.24.1.08L-37,40l-.09-.08" transform="translate(53.95 -30.34)"/><path class="cls-37" d="M-37,40l1.69-2.24.1.1-1.68,2.24L-37,40" transform="translate(53.95 -30.34)"/><path class="cls-38" d="M-36.87,40.11l1.68-2.24.11.09-1.69,2.24-.1-.09" transform="translate(53.95 -30.34)"/><path class="cls-38" d="M-36.77,40.2-35.08,38l.1.09-1.68,2.24-.11-.09" transform="translate(53.95 -30.34)"/><path class="cls-38" d="M-36.66,40.29-35,38.05l.11.09-1.68,2.24-.11-.09" transform="translate(53.95 -30.34)"/><path class="cls-39" d="M-36.55,40.38l1.68-2.24.15.13-1.68,2.24-.15-.13" transform="translate(53.95 -30.34)"/><path class="cls-39" d="M-36.4,40.51l1.68-2.24.2.16-1.69,2.24-.19-.16" transform="translate(53.95 -30.34)"/><path class="cls-39" d="M-36.21,40.67l1.69-2.24.19.16L-36,40.83l-.2-.16" transform="translate(53.95 -30.34)"/><path class="cls-40" d="M-36,40.83l1.68-2.24.35.28-1.68,2.24c-.12-.09-.24-.18-.35-.28" transform="translate(53.95 -30.34)"/><path class="cls-39" d="M-35.66,41.11-34,38.87l.39.3-1.68,2.24-.39-.3" transform="translate(53.95 -30.34)"/><path class="cls-39" d="M-35.27,41.41l1.68-2.24.16.12-1.68,2.24-.16-.12" transform="translate(53.95 -30.34)"/><path class="cls-39" d="M-35.11,41.53l1.68-2.24.17.12-1.68,2.24-.17-.12" transform="translate(53.95 -30.34)"/><path class="cls-38" d="M-34.94,41.65l1.68-2.24.15.11-1.68,2.24-.15-.11" transform="translate(53.95 -30.34)"/><path class="cls-38" d="M-34.79,41.76l1.68-2.24.11.08-1.68,2.24-.11-.08" transform="translate(53.95 -30.34)"/><path class="cls-38" d="M-34.68,41.84-33,39.6l.11.08-1.69,2.24-.1-.08" transform="translate(53.95 -30.34)"/><path class="cls-37" d="M-34.58,41.92l1.69-2.24.11.07L-34.47,42l-.11-.08" transform="translate(53.95 -30.34)"/><path class="cls-37" d="M-34.47,42l1.69-2.25.11.08-1.69,2.24-.11-.07" transform="translate(53.95 -30.34)"/><path class="cls-36" d="M-34.36,42.07l1.69-2.24.11.08-1.69,2.24-.11-.08" transform="translate(53.95 -30.34)"/><path class="cls-36" d="M-34.25,42.15l1.69-2.24.1.07-1.68,2.24-.11-.07" transform="translate(53.95 -30.34)"/><path class="cls-35" d="M-34.14,42.22-32.46,40l.11.07L-34,42.29l-.1-.07" transform="translate(53.95 -30.34)"/><path class="cls-35" d="M-34,42.29l1.69-2.24.1.07-1.68,2.24-.11-.07" transform="translate(53.95 -30.34)"/><path class="cls-34" d="M-33.93,42.36l1.68-2.24.1.07-1.68,2.24-.1-.07" transform="translate(53.95 -30.34)"/><path class="cls-34" d="M-33.83,42.43l1.68-2.24.11.06-1.68,2.25-.11-.07" transform="translate(53.95 -30.34)"/><path class="cls-33" d="M-33.72,42.5-32,40.25l.1.07-1.68,2.24-.1-.06" transform="translate(53.95 -30.34)"/><path class="cls-33" d="M-33.62,42.56l1.68-2.24.13.08-1.69,2.24-.12-.08" transform="translate(53.95 -30.34)"/><path class="cls-32" d="M-33.5,42.64l1.69-2.24.12.08-1.68,2.24-.13-.08" transform="translate(53.95 -30.34)"/><path class="cls-31" d="M-33.37,42.72l1.68-2.24.13.08-1.69,2.24-.12-.08" transform="translate(53.95 -30.34)"/><path class="cls-30" d="M-33.25,42.8l1.69-2.24.12.08-1.68,2.24-.13-.08" transform="translate(53.95 -30.34)"/><path class="cls-29" d="M-33.12,42.88l1.68-2.24.13.07L-33,43l-.13-.07" transform="translate(53.95 -30.34)"/><path class="cls-28" d="M-33,43l1.68-2.24.17.1-1.69,2.24L-33,43" transform="translate(53.95 -30.34)"/><path class="cls-27" d="M-32.83,43.05l1.69-2.24a1,1,0,0,0,.17.1l-1.69,2.24-.17-.1" transform="translate(53.95 -30.34)"/><path class="cls-26" d="M-32.66,43.15-31,40.91l.16.1-1.68,2.24-.17-.1" transform="translate(53.95 -30.34)"/><path class="cls-25" d="M-32.49,43.25-30.81,41l.14.07-1.69,2.25-.13-.08" transform="translate(53.95 -30.34)"/></g></g></g><g class="cls-2"><g class="cls-41"><g class="cls-2"><path class="cls-25" d="M-32.36,43.33l1.69-2.25.05,0-1.69,2.24,0,0" transform="translate(53.95 -30.34)"/><path class="cls-24" d="M-32.31,43.35l1.69-2.24.23.13-1.68,2.24-.24-.13" transform="translate(53.95 -30.34)"/><path class="cls-23" d="M-32.07,43.48l1.68-2.24.23.12-1.68,2.25-.23-.13" transform="translate(53.95 -30.34)"/><path class="cls-22" d="M-31.84,43.61l1.68-2.25.26.14-1.69,2.24-.25-.13" transform="translate(53.95 -30.34)"/><path class="cls-21" d="M-31.59,43.74l1.69-2.24.28.14-1.68,2.24-.29-.14" transform="translate(53.95 -30.34)"/><path class="cls-20" d="M-31.3,43.88l1.68-2.24.29.15L-31,44l-.29-.15" transform="translate(53.95 -30.34)"/><path class="cls-19" d="M-31,44l1.68-2.24.31.14-1.68,2.24L-31,44" transform="translate(53.95 -30.34)"/><path class="cls-18" d="M-30.7,44.17-29,41.93l.31.14-1.68,2.24-.31-.14" transform="translate(53.95 -30.34)"/><path class="cls-17" d="M-30.39,44.31l1.68-2.24.31.13-1.68,2.24-.31-.13" transform="translate(53.95 -30.34)"/><path class="cls-16" d="M-30.08,44.44l1.68-2.24.31.12-1.69,2.24-.3-.12" transform="translate(53.95 -30.34)"/><path class="cls-15" d="M-29.78,44.56l1.69-2.24.3.11-1.69,2.24-.3-.11" transform="translate(53.95 -30.34)"/><path class="cls-14" d="M-29.48,44.67l1.69-2.24.29.1-1.68,2.24-.3-.1" transform="translate(53.95 -30.34)"/><path class="cls-13" d="M-29.18,44.77l1.68-2.24.29.09-1.68,2.24-.29-.09" transform="translate(53.95 -30.34)"/><path class="cls-12" d="M-28.89,44.86l1.68-2.24.3.09L-28.6,45l-.29-.09" transform="translate(53.95 -30.34)"/><path class="cls-11" d="M-28.6,45l1.69-2.24.29.07L-28.31,45-28.6,45" transform="translate(53.95 -30.34)"/><path class="cls-10" d="M-28.31,45l1.69-2.24.29.06L-28,45.08l-.29-.06" transform="translate(53.95 -30.34)"/><path class="cls-9" d="M-28,45.08l1.69-2.24.29,0-1.68,2.24-.3-.05" transform="translate(53.95 -30.34)"/><path class="cls-8" d="M-27.72,45.13-26,42.89l.3,0-1.69,2.24-.29,0" transform="translate(53.95 -30.34)"/><path class="cls-7" d="M-27.43,45.17l1.69-2.24.3,0-1.68,2.24-.31,0" transform="translate(53.95 -30.34)"/><path class="cls-6" d="M-27.12,45.19-25.44,43h.33l-1.68,2.24a1.82,1.82,0,0,1-.33,0" transform="translate(53.95 -30.34)"/><path class="cls-5" d="M-26.79,45.19-25.11,43l.37,0-1.68,2.24-.37,0" transform="translate(53.95 -30.34)"/><path class="cls-4" d="M-26.42,45.15l1.68-2.24a1.41,1.41,0,0,0,.92-.5l-1.69,2.25a1.4,1.4,0,0,1-.91.49" transform="translate(53.95 -30.34)"/></g></g></g><g class="cls-2"><g class="cls-42"><g class="cls-2"><path class="cls-4" d="M-41.31,33.19-39.63,31a1.62,1.62,0,0,1,1-.56l-1.69,2.24a1.6,1.6,0,0,0-1,.56" transform="translate(53.95 -30.34)"/><path class="cls-5" d="M-40.29,32.63l1.69-2.24a2.48,2.48,0,0,1,.41,0l-1.69,2.24-.41,0" transform="translate(53.95 -30.34)"/><path class="cls-6" d="M-39.88,32.59l1.69-2.24a2.28,2.28,0,0,1,.37,0l-1.68,2.24a2.41,2.41,0,0,0-.38,0" transform="translate(53.95 -30.34)"/><path class="cls-7" d="M-39.5,32.59l1.68-2.24.34,0-1.68,2.24-.34,0" transform="translate(53.95 -30.34)"/><path class="cls-8" d="M-39.16,32.61l1.68-2.24.33,0-1.68,2.24-.33,0" transform="translate(53.95 -30.34)"/><path class="cls-9" d="M-38.83,32.65l1.68-2.24.33.06-1.69,2.24-.32-.06" transform="translate(53.95 -30.34)"/><path class="cls-10" d="M-38.51,32.71l1.69-2.24.32.07-1.68,2.24-.33-.07" transform="translate(53.95 -30.34)"/><path class="cls-11" d="M-38.18,32.78l1.68-2.24.32.08-1.68,2.24-.32-.08" transform="translate(53.95 -30.34)"/><path class="cls-12" d="M-37.86,32.86l1.68-2.24.32.09L-37.54,33l-.32-.09" transform="translate(53.95 -30.34)"/><path class="cls-13" d="M-37.54,33l1.68-2.24.32.1-1.68,2.24-.32-.1" transform="translate(53.95 -30.34)"/><path class="cls-14" d="M-37.22,33.05l1.68-2.24.33.11-1.68,2.25-.33-.12" transform="translate(53.95 -30.34)"/><path class="cls-15" d="M-36.89,33.17l1.68-2.25.33.13-1.68,2.24-.33-.12" transform="translate(53.95 -30.34)"/><path class="cls-16" d="M-36.56,33.29l1.68-2.24.34.13-1.69,2.24-.33-.13" transform="translate(53.95 -30.34)"/><path class="cls-17" d="M-36.23,33.42l1.69-2.24.34.14-1.69,2.24-.34-.14" transform="translate(53.95 -30.34)"/><path class="cls-18" d="M-35.89,33.56l1.69-2.24.34.15-1.69,2.24-.34-.15" transform="translate(53.95 -30.34)"/><path class="cls-19" d="M-35.55,33.71l1.69-2.24.34.16-1.69,2.24-.34-.16" transform="translate(53.95 -30.34)"/><path class="cls-20" d="M-35.21,33.87l1.69-2.24.31.16L-34.89,34l-.32-.16" transform="translate(53.95 -30.34)"/><path class="cls-21" d="M-34.89,34l1.68-2.24.32.15-1.69,2.24-.31-.15" transform="translate(53.95 -30.34)"/><path class="cls-22" d="M-34.58,34.18l1.69-2.24.28.15-1.69,2.24-.28-.15" transform="translate(53.95 -30.34)"/><path class="cls-23" d="M-34.3,34.33l1.69-2.24.25.14L-34,34.47l-.25-.14" transform="translate(53.95 -30.34)"/><path class="cls-24" d="M-34,34.47l1.69-2.24.25.14-1.68,2.24-.26-.14" transform="translate(53.95 -30.34)"/><path class="cls-25" d="M-33.79,34.61l1.68-2.24.06,0-1.69,2.24,0,0" transform="translate(53.95 -30.34)"/></g></g></g><g class="cls-2"><g class="cls-43"><g class="cls-2"><path class="cls-25" d="M-33.74,34.64-32,32.4l.14.08-1.68,2.24-.15-.08" transform="translate(53.95 -30.34)"/><path class="cls-26" d="M-33.59,34.72l1.68-2.24.19.11-1.69,2.24-.18-.11" transform="translate(53.95 -30.34)"/><path class="cls-27" d="M-33.41,34.83l1.69-2.24.18.1-1.68,2.25-.19-.11" transform="translate(53.95 -30.34)"/><path class="cls-28" d="M-33.22,34.94l1.68-2.25.18.11L-33,35l-.18-.1" transform="translate(53.95 -30.34)"/><path class="cls-29" d="M-33,35l1.68-2.24.14.09-1.68,2.24L-33,35" transform="translate(53.95 -30.34)"/><path class="cls-30" d="M-32.9,35.13l1.68-2.24.14.08-1.68,2.24-.14-.08" transform="translate(53.95 -30.34)"/><path class="cls-31" d="M-32.76,35.21-31.08,33l.14.09-1.68,2.24-.14-.09" transform="translate(53.95 -30.34)"/><path class="cls-32" d="M-32.62,35.3l1.68-2.24.14.09-1.69,2.24-.13-.09" transform="translate(53.95 -30.34)"/><path class="cls-33" d="M-32.49,35.39l1.69-2.24.13.08-1.68,2.24-.14-.08" transform="translate(53.95 -30.34)"/><path class="cls-33" d="M-32.35,35.47l1.68-2.24.12.08-1.68,2.24-.12-.08" transform="translate(53.95 -30.34)"/><path class="cls-34" d="M-32.23,35.55l1.68-2.24.11.07-1.68,2.24-.11-.07" transform="translate(53.95 -30.34)"/><path class="cls-34" d="M-32.12,35.62l1.68-2.24.12.08L-32,35.7l-.12-.08" transform="translate(53.95 -30.34)"/><path class="cls-35" d="M-32,35.7l1.68-2.24.11.08-1.68,2.24L-32,35.7" transform="translate(53.95 -30.34)"/><path class="cls-35" d="M-31.89,35.78l1.68-2.24.12.07-1.68,2.24-.12-.07" transform="translate(53.95 -30.34)"/><path class="cls-36" d="M-31.77,35.85l1.68-2.24.11.08-1.68,2.24-.11-.08" transform="translate(53.95 -30.34)"/><path class="cls-36" d="M-31.66,35.93-30,33.69a.57.57,0,0,0,.13.08L-31.54,36l-.12-.09" transform="translate(53.95 -30.34)"/><path class="cls-37" d="M-31.54,36l1.69-2.25.12.09-1.69,2.24-.12-.08" transform="translate(53.95 -30.34)"/><path class="cls-37" d="M-31.42,36.1l1.69-2.24.12.08-1.68,2.24-.13-.08" transform="translate(53.95 -30.34)"/><path class="cls-38" d="M-31.29,36.18l1.68-2.24.12.09-1.68,2.24-.12-.09" transform="translate(53.95 -30.34)"/><path class="cls-38" d="M-31.17,36.27-29.49,34l.12.09L-31,36.36l-.12-.09" transform="translate(53.95 -30.34)"/><path class="cls-38" d="M-31,36.36l1.68-2.24.16.11-1.68,2.24-.16-.11" transform="translate(53.95 -30.34)"/><path class="cls-39" d="M-30.89,36.47l1.68-2.24.19.14-1.69,2.24-.18-.14" transform="translate(53.95 -30.34)"/><path class="cls-39" d="M-30.71,36.61-29,34.37l.18.14-1.68,2.24-.19-.14" transform="translate(53.95 -30.34)"/><path class="cls-39" d="M-30.52,36.75l1.68-2.24.41.31-1.68,2.24-.41-.31" transform="translate(53.95 -30.34)"/><path class="cls-40" d="M-30.11,37.06l1.68-2.24.41.33-1.68,2.24-.41-.33" transform="translate(53.95 -30.34)"/><path class="cls-39" d="M-29.7,37.39-28,35.15l.21.17-1.69,2.24-.2-.17" transform="translate(53.95 -30.34)"/><path class="cls-39" d="M-29.5,37.56l1.69-2.24.2.17-1.68,2.24-.21-.17" transform="translate(53.95 -30.34)"/><path class="cls-39" d="M-29.29,37.73l1.68-2.24.18.15-1.68,2.24-.18-.15" transform="translate(53.95 -30.34)"/><path class="cls-38" d="M-29.11,37.88l1.68-2.24.12.1L-29,38l-.11-.1" transform="translate(53.95 -30.34)"/><path class="cls-38" d="M-29,38l1.69-2.24.11.1-1.68,2.24L-29,38" transform="translate(53.95 -30.34)"/><path class="cls-38" d="M-28.88,38.08l1.68-2.24.12.1-1.68,2.24-.12-.1" transform="translate(53.95 -30.34)"/><path class="cls-37" d="M-28.76,38.18l1.68-2.24.11.1-1.68,2.24-.11-.1" transform="translate(53.95 -30.34)"/><path class="cls-37" d="M-28.65,38.28-27,36l.11.1-1.68,2.24-.11-.1" transform="translate(53.95 -30.34)"/><path class="cls-36" d="M-28.54,38.38l1.68-2.24.11.09-1.69,2.25a.94.94,0,0,0-.1-.1" transform="translate(53.95 -30.34)"/><path class="cls-36" d="M-28.44,38.48l1.69-2.25a.47.47,0,0,0,.1.1l-1.69,2.24-.1-.09" transform="translate(53.95 -30.34)"/><path class="cls-35" d="M-28.34,38.57l1.69-2.24.09.09-1.68,2.24-.1-.09" transform="translate(53.95 -30.34)"/><path class="cls-35" d="M-28.24,38.66l1.68-2.24.1.09-1.68,2.24-.1-.09" transform="translate(53.95 -30.34)"/><path class="cls-34" d="M-28.14,38.75l1.68-2.24.1.09L-28,38.84l-.1-.09" transform="translate(53.95 -30.34)"/><path class="cls-34" d="M-28,38.84l1.68-2.24.11.11L-27.94,39l-.1-.11" transform="translate(53.95 -30.34)"/><path class="cls-33" d="M-27.94,39l1.69-2.24.11.1-1.69,2.24-.11-.1" transform="translate(53.95 -30.34)"/><path class="cls-33" d="M-27.83,39.05l1.69-2.24.11.11-1.69,2.24-.11-.11" transform="translate(53.95 -30.34)"/><path class="cls-32" d="M-27.72,39.16-26,36.92l.1.11-1.68,2.24-.11-.11" transform="translate(53.95 -30.34)"/><path class="cls-31" d="M-27.61,39.27-25.93,37l.11.1-1.68,2.24-.11-.1" transform="translate(53.95 -30.34)"/><path class="cls-30" d="M-27.5,39.37l1.68-2.24.14.14-1.69,2.24-.13-.14" transform="translate(53.95 -30.34)"/><path class="cls-29" d="M-27.37,39.51l1.69-2.24.13.14-1.68,2.24a1.85,1.85,0,0,1-.14-.14" transform="translate(53.95 -30.34)"/><path class="cls-28" d="M-27.23,39.65l1.68-2.24.13.14L-27.1,39.8l-.13-.15" transform="translate(53.95 -30.34)"/><path class="cls-27" d="M-27.1,39.79l1.68-2.24.15.16L-26.95,40l-.15-.16" transform="translate(53.95 -30.34)"/><path class="cls-26" d="M-26.95,40l1.68-2.24.18.2-1.69,2.24c0-.07-.11-.13-.17-.2" transform="translate(53.95 -30.34)"/><path class="cls-25" d="M-26.78,40.15l1.69-2.24.17.19-1.69,2.24-.17-.19" transform="translate(53.95 -30.34)"/><path class="cls-24" d="M-26.61,40.34l1.69-2.24.19.23-1.68,2.24-.2-.23" transform="translate(53.95 -30.34)"/><path class="cls-23" d="M-26.41,40.57l1.68-2.24.2.24-1.68,2.24-.2-.24" transform="translate(53.95 -30.34)"/><path class="cls-22" d="M-26.21,40.81l1.68-2.24c.07.09.14.17.2.26L-26,41.07c-.07-.08-.13-.17-.2-.26" transform="translate(53.95 -30.34)"/><path class="cls-21" d="M-26,41.07l1.68-2.24c.07.09.14.17.2.26l-1.68,2.24-.2-.26" transform="translate(53.95 -30.34)"/><path class="cls-20" d="M-25.81,41.33l1.68-2.24.18.25-1.68,2.24-.18-.25" transform="translate(53.95 -30.34)"/><path class="cls-19" d="M-25.63,41.58l1.68-2.24.17.25-1.68,2.24-.17-.25" transform="translate(53.95 -30.34)"/><path class="cls-18" d="M-25.46,41.83l1.68-2.24.15.24-1.68,2.24-.15-.24" transform="translate(53.95 -30.34)"/><path class="cls-17" d="M-25.31,42.07l1.68-2.24c.05.08.1.15.14.23l-1.68,2.24c0-.08-.09-.15-.14-.23" transform="translate(53.95 -30.34)"/><path class="cls-16" d="M-25.17,42.3l1.68-2.24a2.53,2.53,0,0,1,.13.22L-25,42.52c0-.07-.09-.14-.13-.22" transform="translate(53.95 -30.34)"/><path class="cls-15" d="M-25,42.52l1.68-2.24.11.22-1.68,2.24-.11-.22" transform="translate(53.95 -30.34)"/><path class="cls-14" d="M-24.93,42.74l1.68-2.24.11.22L-24.83,43l-.1-.22" transform="translate(53.95 -30.34)"/><path class="cls-13" d="M-24.83,43l1.69-2.24.09.21-1.68,2.24a2,2,0,0,0-.1-.21" transform="translate(53.95 -30.34)"/><path class="cls-12" d="M-24.73,43.17-23,40.93l.08.21-1.68,2.24a1.8,1.8,0,0,1-.08-.21" transform="translate(53.95 -30.34)"/><path class="cls-11" d="M-24.65,43.38-23,41.14l.07.21-1.68,2.24a1,1,0,0,1-.07-.21" transform="translate(53.95 -30.34)"/><path class="cls-10" d="M-24.58,43.59l1.68-2.24.06.22-1.69,2.24a2.25,2.25,0,0,0,0-.22" transform="translate(53.95 -30.34)"/><path class="cls-9" d="M-24.53,43.81l1.69-2.24c0,.07,0,.14,0,.21L-24.49,44a1.91,1.91,0,0,0,0-.21" transform="translate(53.95 -30.34)"/><path class="cls-8" d="M-24,44l1-2.24h0c0,.08.12.15.12.22l-1.39,2.24c0-.07.27-.14.27-.22v0" transform="translate(53.95 -30.34)"/><path class="cls-7" d="M-24.46,44.25-22.78,42a1.85,1.85,0,0,1,0,.23l-1.69,2.25a1,1,0,0,0,0-.24" transform="translate(53.95 -30.34)"/><path class="cls-6" d="M-24.46,44.49l1.69-2.25a1.9,1.9,0,0,1,0,.25l-1.68,2.24a1.94,1.94,0,0,0,0-.24" transform="translate(53.95 -30.34)"/><path class="cls-5" d="M-24.48,44.73l1.68-2.24a2.29,2.29,0,0,1-.08.28L-24.57,45a1.31,1.31,0,0,0,.09-.28" transform="translate(53.95 -30.34)"/><path class="cls-4" d="M-24.57,45l1.69-2.24A1,1,0,0,1-23,43l-1.68,2.24a1,1,0,0,0,.14-.24" transform="translate(53.95 -30.34)"/></g></g></g><path class="cls-44" d="M-33.74,34.64C-29,37.29-24.89,41.5-24.48,44s-3.1,2.42-7.8-.23-8.85-6.86-9.25-9.39S-38.43,32-33.74,34.64Zm1.38,8.69c4.25,2.39,7.41,2.5,7.05.23s-4.1-6.05-8.35-8.45-7.4-2.49-7-.23,4.1,6,8.34,8.45" transform="translate(53.95 -30.34)"/></g><g class="cls-2"><g class="cls-2"><g class="cls-45"><g class="cls-2"><path class="cls-46" d="M-31.48,44.54l-1.68-2.24,0,0,1.68,2.24,0,0" transform="translate(53.95 -30.34)"/><path class="cls-47" d="M-31.52,44.56l-1.68-2.24-.2.11,1.69,2.24.19-.11" transform="translate(53.95 -30.34)"/><path class="cls-48" d="M-31.71,44.67l-1.69-2.24-.21.12,1.68,2.24.22-.12" transform="translate(53.95 -30.34)"/><path class="cls-49" d="M-31.93,44.79l-1.68-2.24-.23.12,1.69,2.24.22-.12" transform="translate(53.95 -30.34)"/><path class="cls-50" d="M-32.15,44.91l-1.69-2.24-.25.12L-32.41,45l.26-.12" transform="translate(53.95 -30.34)"/><path class="cls-51" d="M-32.41,45l-1.68-2.24-.27.13,1.69,2.24.26-.13" transform="translate(53.95 -30.34)"/><path class="cls-52" d="M-32.67,45.16l-1.69-2.24-.27.13,1.68,2.24.28-.13" transform="translate(53.95 -30.34)"/><path class="cls-53" d="M-32.95,45.29l-1.68-2.24-.27.12,1.68,2.24.27-.12" transform="translate(53.95 -30.34)"/><path class="cls-54" d="M-33.22,45.41l-1.68-2.24-.28.12,1.69,2.24.27-.12" transform="translate(53.95 -30.34)"/><path class="cls-55" d="M-33.49,45.53l-1.69-2.24-.26.1,1.68,2.24.27-.1" transform="translate(53.95 -30.34)"/><path class="cls-56" d="M-33.76,45.63l-1.68-2.24-.27.1L-34,45.73l.26-.1" transform="translate(53.95 -30.34)"/><path class="cls-57" d="M-34,45.73l-1.69-2.24-.25.09,1.68,2.24.26-.09" transform="translate(53.95 -30.34)"/><path class="cls-58" d="M-34.28,45.82-36,43.58l-.26.08,1.69,2.24.25-.08" transform="translate(53.95 -30.34)"/><path class="cls-59" d="M-34.53,45.9l-1.69-2.24-.25.07L-34.78,46l.25-.07" transform="translate(53.95 -30.34)"/><path class="cls-60" d="M-34.78,46l-1.69-2.24-.25.06L-35,46l.26-.06" transform="translate(53.95 -30.34)"/><path class="cls-61" d="M-35,46l-1.68-2.24-.25.06,1.68,2.24L-35,46" transform="translate(53.95 -30.34)"/><path class="cls-62" d="M-35.29,46.09-37,43.85l-.25,0,1.68,2.24.25,0" transform="translate(53.95 -30.34)"/><path class="cls-63" d="M-35.54,46.13l-1.68-2.24-.26,0,1.68,2.25.26,0" transform="translate(53.95 -30.34)"/><path class="cls-64" d="M-35.8,46.17l-1.68-2.25-.27,0,1.68,2.24h.27" transform="translate(53.95 -30.34)"/><path class="cls-65" d="M-36.07,46.18l-1.68-2.24a1.5,1.5,0,0,1-.3,0l1.69,2.24h.29" transform="translate(53.95 -30.34)"/><path class="cls-66" d="M-36.36,46.18-38,43.94a1.53,1.53,0,0,1-.3,0l1.69,2.24a1.39,1.39,0,0,0,.3,0" transform="translate(53.95 -30.34)"/></g></g></g><g class="cls-2"><g class="cls-67"><g class="cls-2"><path class="cls-66" d="M-36.66,46.15l-1.69-2.24h0l1.68,2.24h0" transform="translate(53.95 -30.34)"/><path class="cls-68" d="M-36.69,46.15l-1.68-2.24a1.37,1.37,0,0,1-.87-.48l1.68,2.24a1.33,1.33,0,0,0,.87.48" transform="translate(53.95 -30.34)"/></g></g></g><g class="cls-2"><g class="cls-69"><g class="cls-2"><path class="cls-68" d="M-22.91,34.29l-1.68-2.24a1.16,1.16,0,0,1,.13.22l1.68,2.24a1.16,1.16,0,0,0-.13-.22" transform="translate(53.95 -30.34)"/><path class="cls-66" d="M-22.78,34.51l-1.68-2.24a1,1,0,0,1,.07.26l1.69,2.24a2,2,0,0,0-.08-.26" transform="translate(53.95 -30.34)"/><path class="cls-65" d="M-22.7,34.77l-1.69-2.24a1.6,1.6,0,0,1,0,.23L-22.68,35a1.64,1.64,0,0,0,0-.23" transform="translate(53.95 -30.34)"/><path class="cls-64" d="M-22.68,35l-1.68-2.24a1.7,1.7,0,0,1,0,.22l1.69,2.24V35" transform="translate(53.95 -30.34)"/><path class="cls-63" d="M-22.68,35.22-24.37,33a1.49,1.49,0,0,1,0,.21l1.68,2.24,0-.21" transform="translate(53.95 -30.34)"/><path class="cls-62" d="M-22.71,35.43l-1.68-2.24c0,.07,0,.14,0,.22l1.68,2.24a2.07,2.07,0,0,0,0-.22" transform="translate(53.95 -30.34)"/><path class="cls-61" d="M-22.75,35.65l-1.68-2.24-.06.21,1.68,2.24.06-.21" transform="translate(53.95 -30.34)"/><path class="cls-60" d="M-22.81,35.86l-1.68-2.24c0,.07-.05.14-.07.22h0l1.68,2.24h0c0-.08.05-.15.07-.22" transform="translate(53.95 -30.34)"/><path class="cls-59" d="M-22.88,36.08l-1.68-2.24-.08.21L-23,36.29a1.8,1.8,0,0,0,.08-.21" transform="translate(53.95 -30.34)"/><path class="cls-58" d="M-23,36.29l-1.68-2.24-.1.22L-23,36.51l.09-.22" transform="translate(53.95 -30.34)"/><path class="cls-57" d="M-23,36.51l-1.69-2.24-.1.22,1.68,2.24.11-.22" transform="translate(53.95 -30.34)"/><path class="cls-56" d="M-23.16,36.73l-1.68-2.24-.12.23L-23.28,37l.12-.23" transform="translate(53.95 -30.34)"/><path class="cls-55" d="M-23.28,37-25,34.72l-.13.23,1.68,2.24.13-.23" transform="translate(53.95 -30.34)"/><path class="cls-54" d="M-23.41,37.19-25.09,35l-.15.24,1.69,2.24.14-.24" transform="translate(53.95 -30.34)"/><path class="cls-53" d="M-23.55,37.43l-1.69-2.24-.16.25,1.69,2.24c.05-.08.1-.17.16-.25" transform="translate(53.95 -30.34)"/><path class="cls-52" d="M-23.71,37.68l-1.69-2.24-.17.25,1.69,2.24.17-.25" transform="translate(53.95 -30.34)"/><path class="cls-51" d="M-23.88,37.93l-1.69-2.24-.19.26,1.69,2.24.19-.26" transform="translate(53.95 -30.34)"/><path class="cls-50" d="M-24.07,38.19-25.76,36l-.2.27,1.69,2.24.2-.27" transform="translate(53.95 -30.34)"/><path class="cls-49" d="M-24.27,38.46-26,36.22l-.2.26,1.68,2.24.21-.26" transform="translate(53.95 -30.34)"/><path class="cls-48" d="M-24.48,38.72l-1.68-2.24-.21.25L-24.68,39l.2-.25" transform="translate(53.95 -30.34)"/><path class="cls-47" d="M-24.68,39l-1.69-2.24-.19.23,1.68,2.24c.07-.08.13-.16.2-.23" transform="translate(53.95 -30.34)"/><path class="cls-46" d="M-24.88,39.2-26.56,37l-.19.21,1.69,2.24.18-.21" transform="translate(53.95 -30.34)"/><path class="cls-70" d="M-25.06,39.41l-1.69-2.24-.16.18,1.68,2.24.17-.18" transform="translate(53.95 -30.34)"/><path class="cls-71" d="M-25.23,39.59l-1.68-2.24-.16.16,1.69,2.24.15-.16" transform="translate(53.95 -30.34)"/><path class="cls-72" d="M-25.38,39.75l-1.69-2.24-.14.16,1.68,2.24.15-.16" transform="translate(53.95 -30.34)"/><path class="cls-73" d="M-25.53,39.91l-1.68-2.24-.13.13L-25.65,40l.12-.13" transform="translate(53.95 -30.34)"/><path class="cls-74" d="M-25.65,40l-1.69-2.24-.12.13,1.68,2.24a1.59,1.59,0,0,1,.13-.13" transform="translate(53.95 -30.34)"/><path class="cls-75" d="M-25.78,40.17l-1.68-2.24-.12.11,1.69,2.24.11-.11" transform="translate(53.95 -30.34)"/><path class="cls-76" d="M-25.89,40.28-27.58,38l-.11.12L-26,40.4l.11-.12" transform="translate(53.95 -30.34)"/><path class="cls-77" d="M-26,40.4l-1.68-2.24-.11.1,1.68,2.24.11-.1" transform="translate(53.95 -30.34)"/><path class="cls-78" d="M-26.12,40.5l-1.68-2.24-.11.11,1.68,2.24.11-.11" transform="translate(53.95 -30.34)"/><path class="cls-79" d="M-26.23,40.61l-1.68-2.24,0,0-.07.07,1.68,2.24.07-.07,0,0" transform="translate(53.95 -30.34)"/><path class="cls-80" d="M-26.33,40.71-28,38.47l-.1.09,1.68,2.24.1-.09" transform="translate(53.95 -30.34)"/><path class="cls-81" d="M-26.43,40.8l-1.68-2.24-.1.09,1.69,2.24.09-.09" transform="translate(53.95 -30.34)"/><path class="cls-82" d="M-26.52,40.89l-1.69-2.24-.09.09L-26.62,41l.1-.09" transform="translate(53.95 -30.34)"/><path class="cls-83" d="M-26.62,41l-1.68-2.24-.1.09,1.69,2.24.09-.09" transform="translate(53.95 -30.34)"/><path class="cls-84" d="M-26.71,41.07l-1.69-2.24-.1.09,1.69,2.24.1-.09" transform="translate(53.95 -30.34)"/><path class="cls-85" d="M-26.81,41.16l-1.69-2.24-.1.09,1.68,2.24.11-.09" transform="translate(53.95 -30.34)"/><path class="cls-86" d="M-26.92,41.25-28.6,39l-.1.09L-27,41.34l.1-.09" transform="translate(53.95 -30.34)"/><path class="cls-87" d="M-27,41.34-28.7,39.1l-.11.1,1.68,2.24.11-.1" transform="translate(53.95 -30.34)"/><path class="cls-88" d="M-27.13,41.44l-1.68-2.24-.11.09,1.68,2.24.11-.09" transform="translate(53.95 -30.34)"/><path class="cls-89" d="M-27.24,41.53l-1.68-2.24-.13.11,1.69,2.24.12-.11" transform="translate(53.95 -30.34)"/><path class="cls-90" d="M-27.36,41.64-29,39.4l-.13.11,1.68,2.24.14-.11" transform="translate(53.95 -30.34)"/><path class="cls-91" d="M-27.5,41.75l-1.68-2.24-.17.15,1.68,2.24.17-.15" transform="translate(53.95 -30.34)"/><path class="cls-92" d="M-27.67,41.9l-1.68-2.24-.25.2,1.68,2.24.25-.2" transform="translate(53.95 -30.34)"/><path class="cls-93" d="M-27.92,42.1l-1.68-2.24-.58.46,1.69,2.24.57-.46" transform="translate(53.95 -30.34)"/><path class="cls-92" d="M-28.49,42.56l-1.69-2.24-.23.18,1.68,2.24.24-.18" transform="translate(53.95 -30.34)"/><path class="cls-91" d="M-28.73,42.74l-1.68-2.24-.17.12,1.68,2.24.17-.12" transform="translate(53.95 -30.34)"/><path class="cls-90" d="M-28.9,42.86l-1.68-2.24a.91.91,0,0,1-.16.11L-29,43l.15-.11" transform="translate(53.95 -30.34)"/><path class="cls-89" d="M-29,43l-1.69-2.24-.12.09,1.69,2.24L-29,43" transform="translate(53.95 -30.34)"/><path class="cls-88" d="M-29.17,43.06l-1.69-2.24-.12.09,1.69,2.24.12-.09" transform="translate(53.95 -30.34)"/><path class="cls-87" d="M-29.29,43.15-31,40.91l-.11.07,1.69,2.24.11-.07" transform="translate(53.95 -30.34)"/><path class="cls-86" d="M-29.4,43.22-31.09,41l-.1.08,1.68,2.24.11-.08" transform="translate(53.95 -30.34)"/><path class="cls-85" d="M-29.51,43.3l-1.68-2.24-.1.07,1.68,2.24.1-.07" transform="translate(53.95 -30.34)"/><path class="cls-84" d="M-29.61,43.37l-1.68-2.24-.11.07,1.69,2.24.1-.07" transform="translate(53.95 -30.34)"/><path class="cls-83" d="M-29.71,43.44-31.4,41.2l-.1.07,1.69,2.24.1-.07" transform="translate(53.95 -30.34)"/><path class="cls-82" d="M-29.81,43.51l-1.69-2.24-.1.06,1.69,2.25.1-.07" transform="translate(53.95 -30.34)"/><path class="cls-81" d="M-29.91,43.58l-1.69-2.25-.09.07L-30,43.64l.1-.06" transform="translate(53.95 -30.34)"/><path class="cls-80" d="M-30,43.64l-1.68-2.24-.1.07,1.68,2.24.1-.07" transform="translate(53.95 -30.34)"/><path class="cls-79" d="M-30.11,43.71l-1.68-2.24-.11.06,1.69,2.24.1-.06" transform="translate(53.95 -30.34)"/><path class="cls-78" d="M-30.21,43.77l-1.69-2.24-.1.07,1.68,2.24.11-.07" transform="translate(53.95 -30.34)"/><path class="cls-77" d="M-30.32,43.84-32,41.6l-.11.07,1.69,2.24.1-.07" transform="translate(53.95 -30.34)"/><path class="cls-76" d="M-30.42,43.91l-1.69-2.24-.11.07L-30.54,44l.12-.07" transform="translate(53.95 -30.34)"/><path class="cls-75" d="M-30.54,44l-1.68-2.24-.11.07,1.68,2.24.11-.07" transform="translate(53.95 -30.34)"/><path class="cls-74" d="M-30.65,44.05l-1.68-2.24-.13.08,1.69,2.24.12-.08" transform="translate(53.95 -30.34)"/><path class="cls-73" d="M-30.77,44.13l-1.69-2.24-.12.07,1.68,2.24.13-.07" transform="translate(53.95 -30.34)"/><path class="cls-72" d="M-30.9,44.2-32.58,42l-.14.09L-31,44.29l.14-.09" transform="translate(53.95 -30.34)"/><path class="cls-71" d="M-31,44.29l-1.68-2.24-.15.08,1.69,2.24.14-.08" transform="translate(53.95 -30.34)"/><path class="cls-70" d="M-31.18,44.37l-1.69-2.24-.16.1,1.68,2.24.17-.1" transform="translate(53.95 -30.34)"/><path class="cls-46" d="M-31.35,44.47-33,42.23l-.13.07,1.68,2.24.13-.07" transform="translate(53.95 -30.34)"/></g></g></g><g class="cls-2"><g class="cls-94"><g class="cls-2"><path class="cls-79" d="M-34.67,39.24-36.35,37l0,0,1.68,2.24,0,0" transform="translate(53.95 -30.34)"/><path class="cls-78" d="M-34.71,39.27-36.39,37l-.12.12,1.68,2.24.12-.12" transform="translate(53.95 -30.34)"/><path class="cls-77" d="M-34.83,39.39l-1.68-2.24-.13.12,1.69,2.24.12-.12" transform="translate(53.95 -30.34)"/><path class="cls-76" d="M-34.95,39.51l-1.69-2.24-.12.12,1.69,2.24.12-.12" transform="translate(53.95 -30.34)"/><path class="cls-75" d="M-35.07,39.63l-1.69-2.24-.11.12,1.68,2.24.12-.12" transform="translate(53.95 -30.34)"/><path class="cls-74" d="M-35.19,39.75l-1.68-2.24-.14.14,1.68,2.24.14-.14" transform="translate(53.95 -30.34)"/><path class="cls-73" d="M-35.33,39.89-37,37.65l-.16.16,1.69,2.24.15-.16" transform="translate(53.95 -30.34)"/><path class="cls-72" d="M-35.48,40.05l-1.69-2.24-.15.16,1.69,2.24.15-.16" transform="translate(53.95 -30.34)"/><path class="cls-71" d="M-35.63,40.21-37.32,38l-.15.17,1.68,2.24.16-.17" transform="translate(53.95 -30.34)"/><path class="cls-70" d="M-35.79,40.38l-1.68-2.24-.2.22L-36,40.6l.2-.22" transform="translate(53.95 -30.34)"/><path class="cls-46" d="M-36,40.6l-1.68-2.24-.19.22,1.68,2.24.19-.22" transform="translate(53.95 -30.34)"/><path class="cls-47" d="M-36.18,40.82l-1.68-2.24c-.08.08-.15.17-.22.25l1.68,2.24c.08-.08.15-.17.22-.25" transform="translate(53.95 -30.34)"/><path class="cls-48" d="M-36.4,41.07l-1.68-2.24-.22.27,1.68,2.24.22-.27" transform="translate(53.95 -30.34)"/><path class="cls-49" d="M-36.62,41.34-38.3,39.1l-.23.29,1.68,2.24c.08-.09.15-.19.23-.29" transform="translate(53.95 -30.34)"/><path class="cls-50" d="M-36.85,41.63l-1.68-2.24-.22.29,1.68,2.24.22-.29" transform="translate(53.95 -30.34)"/><path class="cls-51" d="M-37.07,41.92l-1.68-2.24L-39,40l1.69,2.24.2-.29" transform="translate(53.95 -30.34)"/><path class="cls-52" d="M-37.27,42.21-39,40l-.19.29,1.68,2.24.2-.29" transform="translate(53.95 -30.34)"/><path class="cls-53" d="M-37.47,42.5l-1.68-2.24-.18.27,1.69,2.24c0-.09.11-.18.17-.27" transform="translate(53.95 -30.34)"/><path class="cls-54" d="M-37.64,42.77l-1.69-2.24-.16.27L-37.8,43c0-.09.1-.18.16-.27" transform="translate(53.95 -30.34)"/><path class="cls-55" d="M-37.8,43l-1.69-2.24a2.15,2.15,0,0,0-.14.26l1.68,2.24.15-.26" transform="translate(53.95 -30.34)"/><path class="cls-56" d="M-37.95,43.3l-1.68-2.24-.14.25,1.69,2.24c0-.08.08-.17.13-.25" transform="translate(53.95 -30.34)"/><path class="cls-57" d="M-38.08,43.55l-1.69-2.24a1.89,1.89,0,0,0-.11.25l1.68,2.24.12-.25" transform="translate(53.95 -30.34)"/><path class="cls-58" d="M-38.2,43.8l-1.68-2.24a2.56,2.56,0,0,0-.11.24L-38.3,44a2.44,2.44,0,0,1,.1-.24" transform="translate(53.95 -30.34)"/><path class="cls-59" d="M-38.3,44-40,41.8l-.09.24,1.68,2.24a2.44,2.44,0,0,1,.1-.24" transform="translate(53.95 -30.34)"/><path class="cls-60" d="M-38.4,44.28-40.08,42c0,.08-.05.16-.08.23l1.69,2.24c0-.07,0-.15.07-.23" transform="translate(53.95 -30.34)"/><path class="cls-61" d="M-38.47,44.51l-1.69-2.24-.06.24,1.68,2.24a2.17,2.17,0,0,1,.07-.24" transform="translate(53.95 -30.34)"/><path class="cls-62" d="M-38.54,44.75l-1.68-2.24c0,.08,0,.16-.05.24L-38.58,45c0-.08,0-.16,0-.24" transform="translate(53.95 -30.34)"/><path class="cls-63" d="M-38.58,45l-1.69-2.24a1.94,1.94,0,0,0,0,.24l1.68,2.24a2,2,0,0,1,0-.24" transform="translate(53.95 -30.34)"/><path class="cls-64" d="M-38.61,45.23-40.29,43a1.93,1.93,0,0,0,0,.24l1.69,2.24a1,1,0,0,1,0-.24" transform="translate(53.95 -30.34)"/><path class="cls-65" d="M-38.61,45.47l-1.69-2.24,0,.26,1.68,2.24a2.11,2.11,0,0,1,0-.26" transform="translate(53.95 -30.34)"/><path class="cls-66" d="M-38.59,45.73l-1.68-2.24a1.4,1.4,0,0,0,.09.29L-38.5,46a1.4,1.4,0,0,1-.09-.29" transform="translate(53.95 -30.34)"/><path class="cls-68" d="M-38.5,46l-1.68-2.24A1.23,1.23,0,0,0-40,44l1.68,2.24A2,2,0,0,1-38.5,46" transform="translate(53.95 -30.34)"/></g></g></g><g class="cls-2"><g class="cls-95"><g class="cls-2"><path class="cls-68" d="M-22.11,33.69l-1.68-2.24a1.51,1.51,0,0,0-1-.54l1.68,2.24a1.55,1.55,0,0,1,1,.54" transform="translate(53.95 -30.34)"/><path class="cls-66" d="M-23.1,33.15l-1.68-2.24h0l-.34,0,1.68,2.24.34,0h0" transform="translate(53.95 -30.34)"/><path class="cls-65" d="M-23.46,33.11l-1.68-2.24h-.33l1.68,2.24h.33" transform="translate(53.95 -30.34)"/><path class="cls-64" d="M-23.79,33.11l-1.68-2.24-.31,0,1.69,2.24.3,0" transform="translate(53.95 -30.34)"/><path class="cls-63" d="M-24.09,33.13l-1.69-2.24-.29,0,1.68,2.24.3,0" transform="translate(53.95 -30.34)"/><path class="cls-62" d="M-24.39,33.17l-1.68-2.24-.29.05,1.69,2.24.28,0" transform="translate(53.95 -30.34)"/><path class="cls-61" d="M-24.67,33.22-26.36,31l-.28.06L-25,33.28l.29-.06" transform="translate(53.95 -30.34)"/><path class="cls-60" d="M-25,33.28-26.64,31l-.28.07,1.68,2.24.28-.07" transform="translate(53.95 -30.34)"/><path class="cls-59" d="M-25.24,33.35l-1.68-2.24-.28.08,1.68,2.24.28-.08" transform="translate(53.95 -30.34)"/><path class="cls-58" d="M-25.52,33.43l-1.68-2.24-.29.09,1.69,2.24.28-.09" transform="translate(53.95 -30.34)"/><path class="cls-57" d="M-25.8,33.52l-1.69-2.24-.29.1,1.69,2.24.29-.1" transform="translate(53.95 -30.34)"/><path class="cls-56" d="M-26.09,33.62l-1.69-2.24-.29.11,1.68,2.24.3-.11" transform="translate(53.95 -30.34)"/><path class="cls-55" d="M-26.39,33.73l-1.68-2.24-.3.12,1.69,2.24.29-.12" transform="translate(53.95 -30.34)"/><path class="cls-54" d="M-26.68,33.85l-1.69-2.24-.3.12L-27,34l.31-.12" transform="translate(53.95 -30.34)"/><path class="cls-53" d="M-27,34l-1.68-2.24-.31.14,1.69,2.24L-27,34" transform="translate(53.95 -30.34)"/><path class="cls-52" d="M-27.29,34.11-29,31.87l-.3.14,1.68,2.24.31-.14" transform="translate(53.95 -30.34)"/><path class="cls-51" d="M-27.6,34.25-29.28,32l-.29.14,1.68,2.24.29-.14" transform="translate(53.95 -30.34)"/><path class="cls-50" d="M-27.89,34.39l-1.68-2.24-.28.14,1.68,2.24.28-.14" transform="translate(53.95 -30.34)"/><path class="cls-49" d="M-28.17,34.53l-1.68-2.24-.25.14,1.68,2.24.25-.14" transform="translate(53.95 -30.34)"/><path class="cls-48" d="M-28.42,34.67l-1.68-2.24-.24.12,1.69,2.24.23-.12" transform="translate(53.95 -30.34)"/><path class="cls-47" d="M-28.65,34.79l-1.69-2.24-.21.12,1.68,2.24.22-.12" transform="translate(53.95 -30.34)"/><path class="cls-46" d="M-28.87,34.91l-1.68-2.24-.05,0-.14.08L-29.06,35l.14-.08.05,0" transform="translate(53.95 -30.34)"/><path class="cls-70" d="M-29.06,35l-1.68-2.24-.18.1,1.68,2.24.18-.1" transform="translate(53.95 -30.34)"/><path class="cls-71" d="M-29.24,35.12l-1.68-2.24-.16.1,1.68,2.24.16-.1" transform="translate(53.95 -30.34)"/><path class="cls-72" d="M-29.4,35.22-31.08,33l-.15.09,1.68,2.24.15-.09" transform="translate(53.95 -30.34)"/><path class="cls-73" d="M-29.55,35.31l-1.68-2.24-.14.08,1.68,2.24.14-.08" transform="translate(53.95 -30.34)"/><path class="cls-74" d="M-29.69,35.39l-1.68-2.24-.14.09,1.68,2.24.14-.09" transform="translate(53.95 -30.34)"/><path class="cls-75" d="M-29.83,35.48l-1.68-2.24-.12.07,1.68,2.24.12-.07" transform="translate(53.95 -30.34)"/><path class="cls-76" d="M-29.95,35.55l-1.68-2.24a.57.57,0,0,1-.13.08l1.69,2.24.12-.08" transform="translate(53.95 -30.34)"/><path class="cls-77" d="M-30.07,35.63l-1.69-2.24-.11.08,1.68,2.24.12-.08" transform="translate(53.95 -30.34)"/><path class="cls-78" d="M-30.19,35.71l-1.68-2.24-.12.07,1.69,2.24.11-.07" transform="translate(53.95 -30.34)"/><path class="cls-79" d="M-30.3,35.78-32,33.54l-.11.07,1.68,2.24.12-.07" transform="translate(53.95 -30.34)"/><path class="cls-80" d="M-30.42,35.85l-1.68-2.24-.11.08,1.68,2.24.11-.08" transform="translate(53.95 -30.34)"/><path class="cls-81" d="M-30.53,35.93l-1.68-2.24-.11.07L-30.64,36l.11-.07" transform="translate(53.95 -30.34)"/><path class="cls-82" d="M-30.64,36l-1.68-2.24-.11.08,1.68,2.24.11-.08" transform="translate(53.95 -30.34)"/><path class="cls-83" d="M-30.75,36.08l-1.68-2.24-.11.07,1.68,2.24.11-.07" transform="translate(53.95 -30.34)"/><path class="cls-84" d="M-30.86,36.15l-1.68-2.24-.11.08L-31,36.23l.11-.08" transform="translate(53.95 -30.34)"/><path class="cls-85" d="M-31,36.23-32.65,34l-.12.08,1.69,2.24.11-.08" transform="translate(53.95 -30.34)"/><path class="cls-86" d="M-31.08,36.31l-1.69-2.24-.11.08,1.68,2.24.12-.08" transform="translate(53.95 -30.34)"/><path class="cls-87" d="M-31.2,36.39l-1.68-2.24-.12.08,1.68,2.24.12-.08" transform="translate(53.95 -30.34)"/><path class="cls-88" d="M-31.32,36.47-33,34.23l-.13.1,1.68,2.24.13-.1" transform="translate(53.95 -30.34)"/><path class="cls-89" d="M-31.45,36.57l-1.68-2.24-.14.09,1.69,2.24.13-.09" transform="translate(53.95 -30.34)"/><path class="cls-90" d="M-31.58,36.66l-1.69-2.24-.16.12,1.68,2.24.17-.12" transform="translate(53.95 -30.34)"/><path class="cls-91" d="M-31.75,36.78l-1.68-2.24-.18.14,1.68,2.24.18-.14" transform="translate(53.95 -30.34)"/><path class="cls-92" d="M-31.93,36.92l-1.68-2.24-.28.21,1.68,2.24.28-.21" transform="translate(53.95 -30.34)"/><path class="cls-93" d="M-32.21,37.13l-1.68-2.24-.63.5,1.68,2.24.63-.5" transform="translate(53.95 -30.34)"/><path class="cls-92" d="M-32.84,37.63l-1.68-2.24-.28.22,1.69,2.24.27-.22" transform="translate(53.95 -30.34)"/><path class="cls-91" d="M-33.11,37.85l-1.69-2.24-.19.16L-33.31,38l.2-.16" transform="translate(53.95 -30.34)"/><path class="cls-90" d="M-33.31,38-35,35.77l-.15.13,1.68,2.24.15-.13" transform="translate(53.95 -30.34)"/><path class="cls-89" d="M-33.46,38.14l-1.68-2.24-.14.12,1.68,2.24.14-.12" transform="translate(53.95 -30.34)"/><path class="cls-88" d="M-33.6,38.26-35.28,36l-.13.11,1.69,2.24.12-.11" transform="translate(53.95 -30.34)"/><path class="cls-87" d="M-33.72,38.37l-1.69-2.24-.12.11,1.68,2.24.13-.11" transform="translate(53.95 -30.34)"/><path class="cls-86" d="M-33.85,38.48l-1.68-2.24-.12.1L-34,38.58l.11-.1" transform="translate(53.95 -30.34)"/><path class="cls-85" d="M-34,38.58l-1.69-2.24a.52.52,0,0,1-.11.1l1.68,2.25.12-.11" transform="translate(53.95 -30.34)"/><path class="cls-84" d="M-34.08,38.69l-1.68-2.25-.11.1,1.68,2.25.11-.1" transform="translate(53.95 -30.34)"/><path class="cls-83" d="M-34.19,38.79l-1.68-2.25-.11.1,1.69,2.24.1-.09" transform="translate(53.95 -30.34)"/><path class="cls-82" d="M-34.29,38.88-36,36.64l-.1.1L-34.4,39l.11-.1" transform="translate(53.95 -30.34)"/><path class="cls-81" d="M-34.4,39l-1.68-2.24-.11.11,1.68,2.24.11-.11" transform="translate(53.95 -30.34)"/><path class="cls-80" d="M-34.51,39.09l-1.68-2.24-.11.1,1.68,2.24.11-.1" transform="translate(53.95 -30.34)"/><path class="cls-79" d="M-34.62,39.19-36.3,37s0,0-.05,0l1.68,2.24.05-.05" transform="translate(53.95 -30.34)"/></g></g></g><path class="cls-96" d="M-34.67,39.24c-3.92,3.77-5.12,7.16-2.68,7.57,1.29.21,3.4-.44,5.79-1.79a29.59,29.59,0,0,0,5.76-4.3,14.83,14.83,0,0,0,3.73-5c.51-1.43.13-2.33-1.05-2.53s-3.4.44-5.8,1.79A29.42,29.42,0,0,0-34.67,39.24Zm-2,6.91c-2.19-.37-1.09-3.43,2.45-6.83A26.49,26.49,0,0,1-29,35.42c2.15-1.21,4-1.8,5.18-1.61s1.39,1,.93,2.27a13.36,13.36,0,0,1-3.38,4.56,26.59,26.59,0,0,1-5.22,3.9c-2.15,1.21-4,1.8-5.18,1.61" transform="translate(53.95 -30.34)"/></g></g><g id="nom"><text class="cls-97" transform="translate(0 36.35)"><tspan class="cls-98">A</tspan><tspan class="cls-99" x="7.31" y="0">r</tspan><tspan x="11.14" y="0">ge</tspan><tspan class="cls-100" x="23.86" y="0">n</tspan><tspan x="30.47" y="0">tina</tspan></text></g></svg>